<?xml version="1.0" encoding="UTF-8"?>
<svg xmlns="http://www.w3.org/2000/svg" xmlns:xlink="http://www.w3.org/1999/xlink" width="215.511" height="67.751" viewBox="0 0 215.511 67.751">
<defs>
<g>
<g id="glyph-0-0">
<path d="M 4.390625 -3.609375 C 4.0625 -3.546875 3.96875 -3.265625 3.96875 -3.125 C 3.96875 -2.953125 4.09375 -2.8125 4.3125 -2.8125 C 4.5625 -2.8125 4.8125 -3.015625 4.8125 -3.328125 C 4.8125 -3.75 4.359375 -3.953125 3.9375 -3.953125 C 3.40625 -3.953125 3.09375 -3.484375 2.984375 -3.28125 C 2.8125 -3.734375 2.421875 -3.953125 2 -3.953125 C 1.03125 -3.953125 0.515625 -2.8125 0.515625 -2.578125 C 0.515625 -2.5 0.578125 -2.46875 0.640625 -2.46875 C 0.71875 -2.46875 0.75 -2.515625 0.765625 -2.5625 C 1.046875 -3.453125 1.640625 -3.734375 1.96875 -3.734375 C 2.234375 -3.734375 2.46875 -3.5625 2.46875 -3.140625 C 2.46875 -2.8125 2.078125 -1.390625 1.96875 -0.953125 C 1.890625 -0.671875 1.625 -0.125 1.140625 -0.125 C 0.953125 -0.125 0.765625 -0.1875 0.671875 -0.234375 C 0.921875 -0.28125 1.09375 -0.484375 1.09375 -0.71875 C 1.09375 -0.953125 0.921875 -1.046875 0.765625 -1.046875 C 0.5 -1.046875 0.265625 -0.828125 0.265625 -0.515625 C 0.265625 -0.078125 0.75 0.09375 1.125 0.09375 C 1.640625 0.09375 1.953125 -0.328125 2.078125 -0.578125 C 2.3125 0.015625 2.828125 0.09375 3.078125 0.09375 C 4.046875 0.09375 4.546875 -1.0625 4.546875 -1.28125 C 4.546875 -1.328125 4.515625 -1.390625 4.4375 -1.390625 C 4.328125 -1.390625 4.328125 -1.34375 4.28125 -1.21875 C 4.078125 -0.578125 3.5625 -0.125 3.09375 -0.125 C 2.84375 -0.125 2.59375 -0.28125 2.59375 -0.71875 C 2.59375 -0.90625 2.71875 -1.40625 2.8125 -1.75 C 2.84375 -1.90625 3.078125 -2.875 3.09375 -2.9375 C 3.203125 -3.25 3.484375 -3.734375 3.9375 -3.734375 C 4.09375 -3.734375 4.265625 -3.703125 4.390625 -3.609375 Z M 4.390625 -3.609375 "/>
</g>
<g id="glyph-0-1">
<path d="M 1.6875 -1.40625 C 1.78125 -1.828125 1.953125 -2.46875 1.96875 -2.546875 C 1.984375 -2.59375 2.203125 -3.03125 2.53125 -3.34375 C 2.78125 -3.578125 3.125 -3.734375 3.484375 -3.734375 C 3.953125 -3.734375 3.953125 -3.25 3.953125 -3.09375 C 3.953125 -2.5625 3.546875 -1.46875 3.4375 -1.1875 C 3.328125 -0.90625 3.296875 -0.828125 3.296875 -0.65625 C 3.296875 -0.171875 3.671875 0.09375 4.0625 0.09375 C 4.921875 0.09375 5.265625 -1.1875 5.265625 -1.28125 C 5.265625 -1.328125 5.25 -1.390625 5.15625 -1.390625 C 5.0625 -1.390625 5.046875 -1.34375 5.015625 -1.21875 C 4.796875 -0.46875 4.421875 -0.125 4.09375 -0.125 C 4.03125 -0.125 3.875 -0.125 3.875 -0.40625 C 3.875 -0.640625 3.953125 -0.859375 4.03125 -1.0625 C 4.203125 -1.515625 4.5625 -2.46875 4.5625 -2.96875 C 4.5625 -3.765625 3.984375 -3.953125 3.5 -3.953125 C 2.671875 -3.953125 2.234375 -3.359375 2.09375 -3.171875 C 2.03125 -3.65625 1.671875 -3.953125 1.21875 -3.953125 C 0.84375 -3.953125 0.65625 -3.671875 0.53125 -3.4375 C 0.390625 -3.125 0.265625 -2.609375 0.265625 -2.578125 C 0.265625 -2.5 0.328125 -2.46875 0.390625 -2.46875 C 0.484375 -2.46875 0.5 -2.515625 0.546875 -2.6875 C 0.71875 -3.390625 0.90625 -3.734375 1.203125 -3.734375 C 1.46875 -3.734375 1.46875 -3.4375 1.46875 -3.3125 C 1.46875 -3.125 1.40625 -2.84375 1.34375 -2.609375 C 1.28125 -2.375 1.203125 -2 1.15625 -1.890625 L 0.796875 -0.421875 C 0.734375 -0.203125 0.734375 -0.1875 0.734375 -0.15625 C 0.734375 -0.046875 0.828125 0.09375 1.015625 0.09375 C 1.140625 0.09375 1.28125 0.015625 1.34375 -0.09375 C 1.375 -0.140625 1.4375 -0.421875 1.484375 -0.609375 Z M 1.6875 -1.40625 "/>
</g>
<g id="glyph-1-0">
<path d="M 4.234375 -2.859375 C 4.234375 -3.453125 4.203125 -4.234375 3.890625 -4.890625 C 3.5 -5.734375 2.8125 -5.953125 2.296875 -5.953125 C 1.765625 -5.953125 1.078125 -5.734375 0.6875 -4.875 C 0.40625 -4.265625 0.359375 -3.546875 0.359375 -2.859375 C 0.359375 -2.28125 0.375 -1.40625 0.765625 -0.703125 C 1.1875 0.046875 1.875 0.203125 2.28125 0.203125 C 2.875 0.203125 3.53125 -0.046875 3.90625 -0.875 C 4.171875 -1.46875 4.234375 -2.140625 4.234375 -2.859375 Z M 2.296875 -0.03125 C 2.03125 -0.03125 1.390625 -0.15625 1.21875 -1.15625 C 1.125 -1.6875 1.125 -2.453125 1.125 -2.96875 C 1.125 -3.578125 1.125 -4.28125 1.234375 -4.765625 C 1.40625 -5.5625 1.984375 -5.734375 2.28125 -5.734375 C 2.625 -5.734375 3.1875 -5.546875 3.359375 -4.71875 C 3.453125 -4.234375 3.453125 -3.53125 3.453125 -2.96875 C 3.453125 -2.40625 3.453125 -1.65625 3.375 -1.140625 C 3.1875 -0.109375 2.515625 -0.03125 2.296875 -0.03125 Z M 2.296875 -0.03125 "/>
</g>
<g id="glyph-1-1">
<path d="M 2.71875 -5.71875 C 2.71875 -5.9375 2.703125 -5.953125 2.484375 -5.953125 C 1.9375 -5.375 1.109375 -5.375 0.828125 -5.375 L 0.828125 -5.109375 C 1 -5.109375 1.546875 -5.109375 2.03125 -5.328125 L 2.03125 -0.71875 C 2.03125 -0.390625 2 -0.28125 1.171875 -0.28125 L 0.890625 -0.28125 L 0.890625 0 C 1.203125 -0.03125 2 -0.03125 2.375 -0.03125 C 2.734375 -0.03125 3.546875 -0.03125 3.859375 0 L 3.859375 -0.28125 L 3.578125 -0.28125 C 2.75 -0.28125 2.71875 -0.390625 2.71875 -0.71875 Z M 2.71875 -5.71875 "/>
</g>
<g id="glyph-1-2">
<path d="M 6.328125 -2.953125 C 6.453125 -2.953125 6.625 -2.953125 6.625 -3.140625 C 6.625 -3.34375 6.421875 -3.34375 6.296875 -3.34375 L 0.84375 -3.34375 C 0.703125 -3.34375 0.515625 -3.34375 0.515625 -3.140625 C 0.515625 -2.953125 0.6875 -2.953125 0.796875 -2.953125 Z M 6.296875 -1.140625 C 6.421875 -1.140625 6.625 -1.140625 6.625 -1.328125 C 6.625 -1.515625 6.453125 -1.515625 6.328125 -1.515625 L 0.796875 -1.515625 C 0.6875 -1.515625 0.515625 -1.515625 0.515625 -1.328125 C 0.515625 -1.140625 0.703125 -1.140625 0.84375 -1.140625 Z M 6.296875 -1.140625 "/>
</g>
<g id="glyph-1-3">
<path d="M 4.125 -1.578125 L 3.875 -1.578125 C 3.859375 -1.46875 3.796875 -0.9375 3.671875 -0.796875 C 3.625 -0.71875 3 -0.71875 2.828125 -0.71875 L 1.234375 -0.71875 L 2.125 -1.5625 C 3.578125 -2.828125 4.125 -3.296875 4.125 -4.203125 C 4.125 -5.234375 3.28125 -5.953125 2.1875 -5.953125 C 1.15625 -5.953125 0.453125 -5.140625 0.453125 -4.328125 C 0.453125 -3.875 0.84375 -3.828125 0.921875 -3.828125 C 1.125 -3.828125 1.390625 -3.984375 1.390625 -4.296875 C 1.390625 -4.5625 1.203125 -4.765625 0.921875 -4.765625 C 0.875 -4.765625 0.84375 -4.765625 0.8125 -4.75 C 1.03125 -5.390625 1.59375 -5.671875 2.078125 -5.671875 C 3 -5.671875 3.3125 -4.828125 3.3125 -4.203125 C 3.3125 -3.296875 2.625 -2.5625 2.1875 -2.09375 L 0.546875 -0.328125 C 0.453125 -0.21875 0.453125 -0.203125 0.453125 0 L 3.875 0 Z M 4.125 -1.578125 "/>
</g>
</g>
<clipPath id="clip-0">
<path clip-rule="nonzero" d="M 0.152344 0 L 183 0 L 183 65 L 0.152344 65 Z M 0.152344 0 "/>
</clipPath>
<clipPath id="clip-1">
<path clip-rule="nonzero" d="M 0.152344 0 L 104 0 L 104 65 L 0.152344 65 Z M 0.152344 0 "/>
</clipPath>
<clipPath id="clip-2">
<path clip-rule="nonzero" d="M 0.152344 0 L 64 0 L 64 65 L 0.152344 65 Z M 0.152344 0 "/>
</clipPath>
</defs>
<path fill="none" stroke-width="0.59776" stroke-linecap="butt" stroke-linejoin="miter" stroke="rgb(29.998779%, 29.998779%, 29.998779%)" stroke-opacity="1" stroke-miterlimit="10" d="M 0.00195033 0.00125043 L 167.317746 0.00125043 " transform="matrix(0.996338, 0, 0, -0.996338, 8.732432, 49.411402)"/>
<path fill-rule="nonzero" fill="rgb(29.998779%, 29.998779%, 29.998779%)" fill-opacity="1" d="M 179.546875 49.410156 C 178.328125 49.183594 176.351562 48.5 174.980469 47.699219 L 174.980469 51.125 C 176.351562 50.324219 178.328125 49.640625 179.546875 49.410156 "/>
<g fill="rgb(29.998779%, 29.998779%, 29.998779%)" fill-opacity="1">
<use xlink:href="#glyph-0-0" x="183.150407" y="51.334335"/>
</g>
<path fill="none" stroke-width="0.59776" stroke-linecap="butt" stroke-linejoin="miter" stroke="rgb(29.998779%, 29.998779%, 29.998779%)" stroke-opacity="1" stroke-miterlimit="10" d="M 0.00195033 0.00125043 L 0.00195033 44.645195 " transform="matrix(0.996338, 0, 0, -0.996338, 8.732432, 49.411402)"/>
<path fill="none" stroke-width="0.3985" stroke-linecap="butt" stroke-linejoin="miter" stroke="rgb(29.998779%, 29.998779%, 29.998779%)" stroke-opacity="1" stroke-miterlimit="10" d="M 0.00195033 0.00125043 L 0.00195033 -2.551064 " transform="matrix(0.996338, 0, 0, -0.996338, 8.732432, 49.411402)"/>
<g fill="rgb(19.999695%, 19.999695%, 19.999695%)" fill-opacity="1">
<use xlink:href="#glyph-1-0" x="6.436869" y="61.217014"/>
</g>
<path fill="none" stroke-width="0.3985" stroke-linecap="butt" stroke-linejoin="miter" stroke="rgb(29.998779%, 29.998779%, 29.998779%)" stroke-opacity="1" stroke-miterlimit="10" d="M 158.74338 0.00125043 L 158.74338 -2.551064 " transform="matrix(0.996338, 0, 0, -0.996338, 8.732432, 49.411402)"/>
<g fill="rgb(19.999695%, 19.999695%, 19.999695%)" fill-opacity="1">
<use xlink:href="#glyph-1-1" x="164.596596" y="61.217014"/>
</g>
<g clip-path="url(#clip-0)">
<path fill="none" stroke-width="1.0959" stroke-linecap="butt" stroke-linejoin="miter" stroke="rgb(25.097656%, 38.822937%, 84.70459%)" stroke-opacity="1" stroke-miterlimit="10" d="M 0.00195033 0.00125043 L 79.370705 42.520226 L 158.74338 0.00125043 " transform="matrix(0.996338, 0, 0, -0.996338, 8.732432, 49.411402)"/>
</g>
<g clip-path="url(#clip-1)">
<path fill="none" stroke-width="1.0959" stroke-linecap="butt" stroke-linejoin="miter" stroke="rgb(79.606628%, 23.527527%, 19.999695%)" stroke-opacity="1" stroke-miterlimit="10" d="M 0.00195033 0.00125043 L 39.686328 42.520226 L 79.370705 0.00125043 " transform="matrix(0.996338, 0, 0, -0.996338, 8.732432, 49.411402)"/>
</g>
<path fill="none" stroke-width="1.0959" stroke-linecap="butt" stroke-linejoin="miter" stroke="rgb(79.606628%, 23.527527%, 19.999695%)" stroke-opacity="1" stroke-miterlimit="10" d="M 79.370705 0.00125043 L 119.055082 42.520226 L 158.74338 0.00125043 " transform="matrix(0.996338, 0, 0, -0.996338, 8.732432, 49.411402)"/>
<g clip-path="url(#clip-2)">
<path fill="none" stroke-width="1.0959" stroke-linecap="butt" stroke-linejoin="miter" stroke="rgb(21.961975%, 59.606934%, 14.901733%)" stroke-opacity="1" stroke-miterlimit="10" d="M 0.00195033 0.00125043 L 19.844139 42.520226 L 39.686328 0.00125043 " transform="matrix(0.996338, 0, 0, -0.996338, 8.732432, 49.411402)"/>
</g>
<path fill="none" stroke-width="1.0959" stroke-linecap="butt" stroke-linejoin="miter" stroke="rgb(21.961975%, 59.606934%, 14.901733%)" stroke-opacity="1" stroke-miterlimit="10" d="M 39.686328 0.00125043 L 59.528516 42.520226 L 79.370705 0.00125043 " transform="matrix(0.996338, 0, 0, -0.996338, 8.732432, 49.411402)"/>
<path fill="none" stroke-width="1.0959" stroke-linecap="butt" stroke-linejoin="miter" stroke="rgb(21.961975%, 59.606934%, 14.901733%)" stroke-opacity="1" stroke-miterlimit="10" d="M 79.370705 0.00125043 L 99.212894 42.520226 L 119.055082 0.00125043 " transform="matrix(0.996338, 0, 0, -0.996338, 8.732432, 49.411402)"/>
<path fill="none" stroke-width="1.0959" stroke-linecap="butt" stroke-linejoin="miter" stroke="rgb(21.961975%, 59.606934%, 14.901733%)" stroke-opacity="1" stroke-miterlimit="10" d="M 119.055082 0.00125043 L 138.901192 42.520226 L 158.74338 0.00125043 " transform="matrix(0.996338, 0, 0, -0.996338, 8.732432, 49.411402)"/>
<g fill="rgb(25.097656%, 38.822937%, 84.70459%)" fill-opacity="1">
<use xlink:href="#glyph-0-1" x="186.215143" y="12.043737"/>
</g>
<g fill="rgb(25.097656%, 38.822937%, 84.70459%)" fill-opacity="1">
<use xlink:href="#glyph-1-2" x="194.304413" y="12.043737"/>
</g>
<g fill="rgb(25.097656%, 38.822937%, 84.70459%)" fill-opacity="1">
<use xlink:href="#glyph-1-0" x="203.991974" y="12.043737"/>
</g>
<g fill="rgb(79.606628%, 23.527527%, 19.999695%)" fill-opacity="1">
<use xlink:href="#glyph-0-1" x="186.215143" y="26.024355"/>
</g>
<g fill="rgb(79.606628%, 23.527527%, 19.999695%)" fill-opacity="1">
<use xlink:href="#glyph-1-2" x="194.304413" y="26.024355"/>
</g>
<g fill="rgb(79.606628%, 23.527527%, 19.999695%)" fill-opacity="1">
<use xlink:href="#glyph-1-1" x="203.991974" y="26.024355"/>
</g>
<g fill="rgb(21.961975%, 59.606934%, 14.901733%)" fill-opacity="1">
<use xlink:href="#glyph-0-1" x="186.215143" y="40.003976"/>
</g>
<g fill="rgb(21.961975%, 59.606934%, 14.901733%)" fill-opacity="1">
<use xlink:href="#glyph-1-2" x="194.304413" y="40.003976"/>
</g>
<g fill="rgb(21.961975%, 59.606934%, 14.901733%)" fill-opacity="1">
<use xlink:href="#glyph-1-3" x="203.991974" y="40.003976"/>
</g>
</svg>
